<?xml version="1.0" encoding="UTF-8"?>
<svg width="427" height="142" xmlns="http://www.w3.org/2000/svg" xmlns:svg="http://www.w3.org/2000/svg">
 <!-- Created with SVG-edit - http://svg-edit.googlecode.com/ -->
 <title>newsLogo</title>
 <g>
  <title>Layer 1</title>
  <path stroke="#190b0b" id="svg_1" d="m56.423943,133.100122c-2.716001,-1.565166 -5.672356,0.722654 -8.574009,-1.557036c2.34668,-0.19647 5.872887,-0.014802 5.25017,-4.698425c1.026783,-5.469422 -1.056971,-11.207438 0.677797,-15.967501c-2.716868,-3.488596 -5.568537,-7.618914 -7.01705,-12.491599c-0.290711,1.965793 -0.558641,3.52958 -0.971807,0.140461c-0.236843,-1.658531 -0.093122,4.09975 -0.998662,0.059413c-0.955107,-3.592679 -3.526478,-12.960444 -4.324313,-4.271748c-0.331362,4.483616 -1.371214,1.302341 -1.846495,-1.542947c-0.4829,-5.478902 -2.227146,-10.55458 -2.683988,-16.022785c1.785525,-3.463938 -0.254538,-3.935578 -1.20352,-0.479779c-1.044997,5.482315 -1.940211,10.90826 -0.85007,16.556233c-1.448753,1.594972 -4.245095,-7.422373 -2.958937,-10.881303c1.115799,-3.913745 0.867715,-7.908542 1.053395,-10.556051c1.02021,-2.98659 -0.992643,-6.232083 0.077311,-9.417048c-2.734098,4.011537 -5.179107,6.786242 -4.411068,13.079668c-0.339372,1.569937 1.139519,10.597324 0.197657,7.273148c-1.778244,-6.489304 -1.77961,-13.67619 -0.441412,-20.297764c0.001646,-5.054085 -3.044215,8.727857 -2.81937,1.972568c-0.288268,-5.094642 1.271852,-10.696823 2.749408,-14.724921c-1.682275,-2.694108 -7.130962,-0.785078 -4.5533,-6.504387c2.536739,-2.906817 2.26488,-6.904033 -1.187636,-3.389338c-5.331275,5.26968 -9.754425,12.039915 -14.641749,18.024559c4.695625,-8.1234 9.9892,-15.984224 16.540998,-21.434041c6.352556,-5.383682 15.56396,-5.940272 21.045447,1.774914c1.394232,3.30479 4.634938,5.495571 5.407638,8.470661c-0.568024,4.459281 1.571422,6.670443 1.801102,10.589774c1.350101,3.024269 -1.218076,8.4615 2.623685,6.894152c4.370168,-0.008266 10.350957,-1.311369 10.692813,-8.646826c1.74412,-10.564569 2.547036,-22.36764 8.131914,-30.775657c3.10392,-2.441973 1.175976,-1.792072 -1.092209,-2.194293c-2.0052,-3.140714 2.024005,-8.182441 4.007608,-8.757141c-0.342194,-7.422596 3.241856,4.449868 4.26643,-0.999899c1.537369,0.039348 2.286867,5.003455 3.221472,0.95166c2.787157,3.173908 5.732892,7.975029 2.051202,12.395123c4.1885,2.702366 -4.267922,0.952314 -0.660176,5.092542c2.977551,3.873059 0.872783,11.027683 -1.571429,14.145698c-0.094934,2.34438 2.865806,5.750378 3.46111,8.59454c3.075606,8.012915 3.692313,17.545857 2.513518,26.326563c-1.659722,8.275934 -7.83658,11.877289 -12.204003,17.134777c-3.730708,4.116158 -2.418058,11.335625 -4.184435,16.741157c0.175627,3.121369 1.470177,6.675852 3.309529,8.560066c2.665588,2.004727 5.788394,3.298917 7.943685,6.234067c-1.968438,1.383472 -5.981915,-4.231539 -6.020735,0.161587c-2.924197,-5.112177 -7.314002,-1.681859 -10.528116,-5.613342c2.674756,0.686002 6.151597,0.332434 3.222497,-3.980534c-1.15657,-3.647358 -4.640092,-4.906036 -4.732506,-9.314212c-3.282366,2.773309 -5.515872,6.549115 -7.899357,10.313846c-3.956799,-0.33265 -4.127404,10.40174 0.14514,10.242481c1.754638,0.603927 8.339941,3.89435 3.154237,3.044409c-1.545687,-0.371679 -3.222543,-1.673556 -3.175273,0.769179c-0.708816,-0.171584 -1.341641,-0.646079 -1.99414,-1.024669l0.000003,0z" stroke-width="5" fill="#930808"/>
  <text stroke="#050303" transform="matrix(3.595162070386396,0,0,6.866163295236194,-1577.2517617589608,-1749.6199008889314) " xml:space="preserve" text-anchor="middle" font-family="serif" font-size="24" id="svg_6" y="273.262259" x="497.115061" stroke-linecap="null" stroke-linejoin="null" stroke-dasharray="null" stroke-width="0" fill="#000000">NewS</text>
  <line stroke="#050303" id="svg_7" y2="3.478515" x2="424.499962" y1="3.478515" x1="4.499985" stroke-linecap="null" stroke-linejoin="null" stroke-dasharray="null" stroke-width="5" fill="none"/>
  <line id="svg_8" stroke="#050303" y2="138.478515" x2="422.499977" y1="138.478515" x1="2.5" stroke-linecap="null" stroke-linejoin="null" stroke-dasharray="null" stroke-width="5" fill="none"/>
 </g>
</svg>